<svg width="200" height="200" viewBox="0 0 200 200" fill="none" xmlns="http://www.w3.org/2000/svg">
<g clip-path="url(#clip0)">
<path fill-rule="evenodd" clip-rule="evenodd" d="M0.0595703 200.682H200.051V0.681641H0.0595703V200.682Z" fill="#FFF101"/>
<path fill-rule="evenodd" clip-rule="evenodd" d="M169.705 117.613H30.4621L30.4609 167.856H169.705V117.613Z" fill="#FFF101"/>
<path fill-rule="evenodd" clip-rule="evenodd" d="M30.1584 117.31H170.008V168.159H30.1572L30.1584 117.31ZM30.765 117.916L30.7639 167.552H169.401V117.916H30.765Z" fill="#FFF101"/>
<path fill-rule="evenodd" clip-rule="evenodd" d="M169.645 117.693C169.645 118.863 169.645 166.657 169.645 167.827C168.448 167.827 31.6552 167.827 30.4574 167.827C30.4574 166.657 30.4574 118.863 30.4574 117.693C31.6552 117.693 168.448 117.693 169.645 117.693ZM29.2441 169.04H170.858V116.479H29.2441V169.04Z" fill="#D8232A"/>
<path fill-rule="evenodd" clip-rule="evenodd" d="M53.2156 123.579C53.8039 124.649 53.8039 125.986 53.8578 127.27H49.31C49.31 126.2 49.0422 125.237 48.2935 124.435C46.9516 122.732 44.7083 122.99 42.7824 123.15C41.8196 123.365 40.745 123.9 40.2628 124.809C39.8351 125.451 39.8351 126.414 40.0496 127.11C41.081 129.605 44.5986 129.099 47.6661 129.478C49.143 129.661 52.048 130.137 53.4834 132.46C54.3388 134.439 54.3388 137.489 53.0551 139.309C49.4035 143.724 42.0063 142.619 39.5187 141.555C37.0308 140.491 35.6664 138.346 35.3987 136.046C35.3454 135.51 35.3454 134.922 35.3454 134.333H39.8861C39.8861 135.456 40.0531 136.582 40.6953 137.382C41.7658 138.667 43.6917 139.309 45.6181 139.201C47.1158 139.094 48.6678 138.667 49.3632 137.168C49.6844 136.259 49.624 135.2 49.1891 134.354C48.7538 133.506 47.2229 133.049 46.0459 132.942C42.4073 132.3 37.6995 133.155 35.8803 129.143C35.0243 127.078 35.1729 124.329 36.2014 122.937C39.0271 119.11 46.9516 119.388 50.1659 120.796C51.8715 121.544 52.6801 122.348 53.2156 123.579Z" fill="#D8232A"/>
<path fill-rule="evenodd" clip-rule="evenodd" d="M121.144 120.459L126.945 137.597L132.75 120.459H137.191L130.028 142.093L123.767 142.091L116.651 120.459H121.144Z" fill="#D8232A"/>
<path fill-rule="evenodd" clip-rule="evenodd" d="M138.708 142.091H143.097V120.459H138.708V142.091Z" fill="#D8232A"/>
<path fill-rule="evenodd" clip-rule="evenodd" d="M151.34 120.459L151.358 128.715L159.795 120.475H165.733L155.407 130.856L166.555 142.091L160.489 142.089L151.355 133.065L151.34 142.091H146.793V120.459H151.34Z" fill="#D8232A"/>
<path fill-rule="evenodd" clip-rule="evenodd" d="M83.0924 120.475C85.6072 125.559 87.9613 130.642 90.5298 135.724L90.5276 120.457L94.81 120.475V142.091H89.3523L80.7381 125.345L80.7216 142.091H76.4043V120.475H83.0924Z" fill="#D8232A"/>
<path fill-rule="evenodd" clip-rule="evenodd" d="M103.315 124.328V138.506C103.315 138.506 107.069 138.523 107.069 138.527C108.746 138.527 110.316 138.273 111.448 136.795C113.107 134.12 112.839 129.839 111.823 126.95C110.991 124.689 109.086 124.329 107.031 124.316C107.069 124.31 103.315 124.328 103.315 124.328ZM107.068 120.466C110.264 120.465 113.189 121.18 115.247 124.221C117.654 128.234 117.601 134.546 115.3 138.613C113.392 141.578 110.413 142.089 107.069 142.082C107.069 142.089 98.9277 142.091 98.9277 142.091V120.475L107.068 120.466Z" fill="#D8232A"/>
<path fill-rule="evenodd" clip-rule="evenodd" d="M67.5715 133.317L64.5425 124.542L61.5207 133.317H67.5715ZM75.2431 142.094L70.6017 142.091L68.8902 137.115H60.2228L58.5084 142.096L53.8955 142.094L61.2974 120.457H67.8593L75.2431 142.094Z" fill="#D8232A"/>
<path fill-rule="evenodd" clip-rule="evenodd" d="M33.5781 164.723H166.537V144.606H33.5781V164.723Z" fill="#D8232A"/>
<path fill-rule="evenodd" clip-rule="evenodd" d="M70.5049 151.882C70.1424 150.052 68.6744 149.129 66.8801 149.129C63.7989 149.129 62.494 151.667 62.494 154.367C62.494 157.321 63.7989 159.785 66.8984 159.785C69.1637 159.785 70.4688 158.19 70.6318 156.052H72.3538C72.0274 159.278 70.0157 161.235 66.7533 161.235C62.7297 161.235 60.7725 158.263 60.7725 154.494C60.7725 150.743 62.911 147.679 66.8984 147.679C69.5986 147.679 71.8277 149.129 72.2263 151.882H70.5049Z" fill="#FFF101"/>
<path fill-rule="evenodd" clip-rule="evenodd" d="M78.2838 159.785C79.8975 159.785 81.2025 158.517 81.2025 156.252C81.2025 153.969 79.8975 152.698 78.2838 152.698C76.6713 152.698 75.3662 153.969 75.3662 156.252C75.3662 158.517 76.6713 159.785 78.2838 159.785ZM78.2838 151.34C81.2564 151.34 82.8334 153.496 82.8334 156.252C82.8334 158.989 81.2564 161.144 78.2838 161.144C75.3124 161.144 73.7354 158.989 73.7354 156.252C73.7354 153.496 75.3124 151.34 78.2838 151.34Z" fill="#FFF101"/>
<path fill-rule="evenodd" clip-rule="evenodd" d="M84.5947 151.558H86.0448V153.534H86.0811C86.8239 152.028 87.8575 151.285 89.5245 151.34V152.971C87.0417 152.971 86.1355 154.385 86.1355 156.759V160.927H84.5947V151.558Z" fill="#FFF101"/>
<path fill-rule="evenodd" clip-rule="evenodd" d="M94.7248 159.785C96.3373 159.785 97.6428 158.517 97.6428 156.252C97.6428 153.969 96.3373 152.698 94.7248 152.698C93.1116 152.698 91.8066 153.969 91.8066 156.252C91.8066 158.517 93.1116 159.785 94.7248 159.785ZM94.7248 151.34C97.6967 151.34 99.2738 153.496 99.2738 156.252C99.2738 158.989 97.6967 161.144 94.7248 161.144C91.7521 161.144 90.1758 158.989 90.1758 156.252C90.1758 153.496 91.7521 151.34 94.7248 151.34Z" fill="#FFF101"/>
<path fill-rule="evenodd" clip-rule="evenodd" d="M101.09 151.558H102.54V152.935H102.576C103.265 151.883 104.316 151.34 105.603 151.34C106.745 151.34 107.796 151.792 108.177 152.935C108.811 151.937 109.917 151.34 111.112 151.34C112.979 151.34 114.23 152.119 114.23 154.059V160.927H112.689V154.783C112.689 153.624 112.381 152.698 110.877 152.698C109.39 152.698 108.43 153.643 108.43 155.091V160.927H106.889V154.783C106.889 153.57 106.509 152.698 105.132 152.698C103.301 152.698 102.631 154.385 102.631 155.091V160.927H101.09V151.558Z" fill="#FFF101"/>
<path fill-rule="evenodd" clip-rule="evenodd" d="M122.353 156.089C121.753 156.523 120.594 156.541 119.561 156.724C118.545 156.904 117.676 157.266 117.676 158.408C117.676 159.424 118.545 159.785 119.489 159.785C121.518 159.785 122.353 158.517 122.353 157.665V156.089ZM124.853 160.892C124.581 161.055 124.237 161.144 123.746 161.144C122.95 161.144 122.443 160.709 122.443 159.695C121.591 160.693 120.449 161.144 119.144 161.144C117.44 161.144 116.045 160.385 116.045 158.517C116.045 156.397 117.621 155.943 119.217 155.635C120.921 155.309 122.369 155.418 122.369 154.258C122.369 152.917 121.265 152.698 120.285 152.698C118.981 152.698 118.02 153.098 117.948 154.476H116.407C116.498 152.156 118.292 151.34 120.376 151.34C122.061 151.34 123.893 151.721 123.893 153.913V158.735C123.893 159.459 123.893 159.785 124.381 159.785C124.509 159.785 124.654 159.767 124.853 159.695V160.892Z" fill="#FFF101"/>
<path fill-rule="evenodd" clip-rule="evenodd" d="M126.286 151.558H127.736V153.044H127.772C128.426 151.883 129.477 151.34 130.818 151.34C133.281 151.34 134.044 152.752 134.044 154.765V160.927H132.504V154.584C132.504 153.442 131.779 152.698 130.601 152.698C128.734 152.698 127.826 153.95 127.826 155.635V160.927H126.286V151.558Z" fill="#FFF101"/>
<path fill-rule="evenodd" clip-rule="evenodd" d="M138.504 151.557H140.371V152.916H138.504V158.735C138.504 159.441 138.704 159.569 139.665 159.569H140.371V160.927H139.194C137.599 160.927 136.964 160.6 136.964 158.879V152.916H135.369V151.557H136.964V148.747H138.504V151.557Z" fill="#FFF101"/>
</g>
<defs>
<clipPath id="clip0">
<rect width="200" height="200" fill="white"/>
</clipPath>
</defs>
</svg>
